<?xml version="1.0" encoding="utf-8"?>
<!-- Generator: Adobe Illustrator 22.1.0, SVG Export Plug-In . SVG Version: 6.00 Build 0)  -->
<svg version="1.1" id="Слой_1" xmlns="http://www.w3.org/2000/svg" xmlns:xlink="http://www.w3.org/1999/xlink" x="0px" y="0px"
	 viewBox="0 0 184.5 47.9" style="enable-background:new 0 0 184.5 47.9;" xml:space="preserve">
<style type="text/css">
	.st0{enable-background:new    ;}
	.st1{fill:#FDE428;}
	.st2{fill:#FFFFFF;}
</style>
<g class="st0">
	<path class="st1" d="M8.8,32.7c-2.6-1.4-4.6-3.3-6.1-5.8s-2.2-5.3-2.2-8.4c0-3.1,0.7-5.9,2.2-8.4s3.5-4.4,6.1-5.8
		c2.6-1.4,5.5-2.1,8.8-2.1c2.7,0,5.2,0.5,7.4,1.4c2.2,1,4.1,2.3,5.6,4.1l-4.7,4.3c-2.1-2.5-4.8-3.7-7.9-3.7c-2,0-3.7,0.4-5.2,1.3
		c-1.5,0.9-2.7,2-3.6,3.6c-0.9,1.5-1.3,3.3-1.3,5.2c0,2,0.4,3.7,1.3,5.2c0.9,1.5,2,2.7,3.6,3.6c1.5,0.9,3.3,1.3,5.2,1.3
		c3.2,0,5.8-1.2,7.9-3.7l4.7,4.3c-1.5,1.8-3.4,3.2-5.6,4.2c-2.2,1-4.7,1.4-7.4,1.4C14.3,34.7,11.4,34.1,8.8,32.7z"/>
	<path class="st1" d="M38.7,33c-2-1.1-3.6-2.5-4.7-4.4c-1.1-1.9-1.7-4-1.7-6.4c0-2.4,0.6-4.5,1.7-6.4c1.1-1.9,2.7-3.4,4.7-4.4
		c2-1.1,4.3-1.6,6.9-1.6c2.5,0,4.8,0.5,6.8,1.6c2,1.1,3.6,2.5,4.7,4.4c1.1,1.9,1.7,4,1.7,6.4c0,2.4-0.6,4.5-1.7,6.4
		c-1.1,1.9-2.7,3.4-4.7,4.4c-2,1.1-4.3,1.6-6.8,1.6C43,34.6,40.7,34,38.7,33z M50,27c1.2-1.2,1.7-2.8,1.7-4.9c0-2-0.6-3.7-1.7-4.9
		c-1.2-1.2-2.6-1.8-4.4-1.8c-1.8,0-3.3,0.6-4.5,1.8c-1.2,1.2-1.8,2.8-1.8,4.9c0,2,0.6,3.7,1.8,4.9s2.7,1.8,4.5,1.8
		C47.4,28.8,48.8,28.2,50,27z"/>
	<path class="st1" d="M87.9,10v24.2h-6.7v-2.9c-0.9,1-2,1.9-3.3,2.4c-1.3,0.6-2.7,0.8-4.2,0.8c-3.2,0-5.7-0.9-7.6-2.7
		c-1.9-1.8-2.8-4.5-2.8-8.1V10h7v12.6c0,3.9,1.6,5.8,4.9,5.8c1.7,0,3-0.5,4.1-1.6c1-1.1,1.5-2.7,1.5-4.9V10H87.9z"/>
	<path class="st1" d="M116.4,12.3c1.8,1.8,2.8,4.5,2.8,8v13.9h-7V21.4c0-1.9-0.4-3.4-1.3-4.3c-0.8-0.9-2.1-1.4-3.6-1.4
		c-1.8,0-3.2,0.5-4.2,1.6c-1,1.1-1.6,2.7-1.6,4.9v12h-7V10h6.7v2.8c0.9-1,2.1-1.8,3.5-2.4c1.4-0.6,2.9-0.8,4.5-0.8
		C112.1,9.6,114.6,10.5,116.4,12.3z"/>
	<path class="st1" d="M127.8,33.8c-1.9-0.5-3.5-1.1-4.6-1.9l2.3-5c1.1,0.7,2.4,1.3,3.9,1.7c1.5,0.4,3,0.7,4.5,0.7
		c3,0,4.5-0.7,4.5-2.2c0-0.7-0.4-1.2-1.2-1.5c-0.8-0.3-2.1-0.6-3.7-0.8c-2-0.3-3.6-0.6-4.9-1c-1.3-0.4-2.4-1.1-3.4-2.1
		c-0.9-1-1.4-2.4-1.4-4.2c0-1.5,0.4-2.9,1.3-4.1c0.9-1.2,2.2-2.1,3.9-2.8c1.7-0.7,3.7-1,6-1c1.7,0,3.4,0.2,5.1,0.6
		c1.7,0.4,3.1,0.9,4.2,1.6l-2.3,5c-2.1-1.2-4.5-1.8-7-1.8c-1.5,0-2.6,0.2-3.4,0.6c-0.8,0.4-1.1,1-1.1,1.6c0,0.8,0.4,1.3,1.2,1.6
		c0.8,0.3,2.1,0.6,3.9,0.9c2,0.3,3.6,0.7,4.9,1.1c1.3,0.4,2.4,1.1,3.3,2c0.9,1,1.4,2.4,1.4,4.1c0,1.5-0.5,2.8-1.4,4
		c-0.9,1.2-2.2,2.1-3.9,2.7s-3.8,1-6.1,1C131.7,34.6,129.7,34.3,127.8,33.8z"/>
	<path class="st1" d="M173,24.1h-18.3c0.3,1.5,1.1,2.7,2.3,3.6c1.2,0.9,2.8,1.3,4.6,1.3c1.3,0,2.4-0.2,3.4-0.6c1-0.4,1.9-1,2.7-1.8
		l3.7,4.1c-2.3,2.6-5.6,3.9-10,3.9c-2.7,0-5.1-0.5-7.2-1.6c-2.1-1.1-3.7-2.5-4.9-4.4c-1.1-1.9-1.7-4-1.7-6.4c0-2.4,0.6-4.5,1.7-6.4
		c1.1-1.9,2.7-3.4,4.6-4.5c2-1.1,4.2-1.6,6.6-1.6c2.4,0,4.5,0.5,6.4,1.5c1.9,1,3.4,2.5,4.5,4.4c1.1,1.9,1.6,4.1,1.6,6.6
		C173.1,22.3,173.1,22.9,173,24.1z M156.6,16.3c-1.1,0.9-1.7,2.1-2,3.7h11.9c-0.2-1.5-0.9-2.8-2-3.7c-1.1-0.9-2.4-1.4-4-1.4
		C159,14.9,157.7,15.4,156.6,16.3z"/>
	<path class="st1" d="M177.8,0.8h7v33.4h-7V0.8z"/>
</g>
<g class="st0">
	<path class="st2" d="M6,47.5c-0.7-0.4-1.2-0.9-1.6-1.6c-0.4-0.7-0.6-1.4-0.6-2.2c0-0.8,0.2-1.6,0.6-2.2s0.9-1.2,1.6-1.6
		c0.7-0.4,1.5-0.6,2.4-0.6s1.7,0.2,2.4,0.6c0.7,0.4,1.2,0.9,1.6,1.6c0.4,0.7,0.6,1.4,0.6,2.2c0,0.8-0.2,1.6-0.6,2.2
		c-0.4,0.7-0.9,1.2-1.6,1.6s-1.5,0.6-2.4,0.6S6.7,47.9,6,47.5z M9.7,46.1c0.4-0.2,0.7-0.5,0.9-1c0.2-0.4,0.3-0.9,0.3-1.4
		c0-0.5-0.1-1-0.3-1.4s-0.5-0.7-0.9-1C9.3,41.1,8.9,41,8.4,41s-0.9,0.1-1.3,0.3c-0.4,0.2-0.7,0.5-0.9,1s-0.3,0.9-0.3,1.4
		c0,0.5,0.1,1,0.3,1.4c0.2,0.4,0.5,0.7,0.9,1c0.4,0.2,0.8,0.3,1.3,0.3S9.3,46.3,9.7,46.1z"/>
	<path class="st2" d="M30.5,39.5l-2.7,8.4h-2.1l-1.8-5.7l-1.9,5.7h-2.1L17,39.5h2l1.9,5.9l2-5.9h1.8l1.9,6l2-6H30.5z"/>
	<path class="st2" d="M42.9,39.5v8.4h-1.6l-4.2-5.1v5.1h-1.9v-8.4h1.6l4.2,5.1v-5.1H42.9z"/>
	<path class="st2" d="M59.5,44.9v3h-1.9v-3l-3.3-5.4h2.1l2.2,3.7l2.2-3.7h1.9L59.5,44.9z"/>
	<path class="st2" d="M68.5,47.5c-0.7-0.4-1.2-0.9-1.6-1.6c-0.4-0.7-0.6-1.4-0.6-2.2c0-0.8,0.2-1.6,0.6-2.2s0.9-1.2,1.6-1.6
		c0.7-0.4,1.5-0.6,2.4-0.6s1.7,0.2,2.4,0.6c0.7,0.4,1.2,0.9,1.6,1.6c0.4,0.7,0.6,1.4,0.6,2.2c0,0.8-0.2,1.6-0.6,2.2
		c-0.4,0.7-0.9,1.2-1.6,1.6s-1.5,0.6-2.4,0.6S69.2,47.9,68.5,47.5z M72.2,46.1c0.4-0.2,0.7-0.5,0.9-1c0.2-0.4,0.3-0.9,0.3-1.4
		c0-0.5-0.1-1-0.3-1.4s-0.5-0.7-0.9-1c-0.4-0.2-0.8-0.3-1.3-0.3s-0.9,0.1-1.3,0.3c-0.4,0.2-0.7,0.5-0.9,1s-0.3,0.9-0.3,1.4
		c0,0.5,0.1,1,0.3,1.4c0.2,0.4,0.5,0.7,0.9,1c0.4,0.2,0.8,0.3,1.3,0.3S71.8,46.3,72.2,46.1z"/>
	<path class="st2" d="M81.5,47.1c-0.7-0.7-1-1.6-1-2.8v-4.7h1.9v4.6c0,1.5,0.6,2.3,1.9,2.3c0.6,0,1.1-0.2,1.4-0.5
		c0.3-0.4,0.5-0.9,0.5-1.7v-4.6h1.9v4.7c0,1.2-0.3,2.2-1,2.8s-1.6,1-2.8,1S82.1,47.7,81.5,47.1z"/>
	<path class="st2" d="M98.9,47.9l-1.6-2.3h-0.1h-1.7v2.3h-1.9v-8.4h3.6c0.7,0,1.4,0.1,1.9,0.4c0.5,0.2,1,0.6,1.3,1.1s0.4,1,0.4,1.6
		s-0.2,1.2-0.5,1.6c-0.3,0.5-0.7,0.8-1.3,1l1.9,2.7H98.9z M98.4,41.5c-0.3-0.3-0.7-0.4-1.3-0.4h-1.6V44h1.6c0.6,0,1-0.1,1.3-0.4
		c0.3-0.3,0.5-0.6,0.5-1.1C98.9,42.1,98.7,41.7,98.4,41.5z"/>
	<path class="st2" d="M114.7,47.5c-0.7-0.4-1.2-0.9-1.6-1.5c-0.4-0.7-0.6-1.4-0.6-2.2s0.2-1.6,0.6-2.2c0.4-0.7,0.9-1.2,1.6-1.5
		c0.7-0.4,1.5-0.6,2.3-0.6c0.7,0,1.4,0.1,2,0.4s1.1,0.6,1.5,1.1l-1.2,1.2c-0.6-0.7-1.3-1-2.1-1c-0.5,0-1,0.1-1.4,0.3
		c-0.4,0.2-0.7,0.5-1,1c-0.2,0.4-0.3,0.9-0.3,1.4c0,0.5,0.1,1,0.3,1.4c0.2,0.4,0.5,0.7,1,1c0.4,0.2,0.9,0.3,1.4,0.3
		c0.8,0,1.5-0.3,2.1-1l1.2,1.2c-0.4,0.5-0.9,0.9-1.5,1.1s-1.3,0.4-2,0.4C116.2,48.1,115.4,47.9,114.7,47.5z"/>
	<path class="st2" d="M126.9,47.5c-0.7-0.4-1.2-0.9-1.6-1.6c-0.4-0.7-0.6-1.4-0.6-2.2c0-0.8,0.2-1.6,0.6-2.2
		c0.4-0.7,0.9-1.2,1.6-1.6c0.7-0.4,1.5-0.6,2.4-0.6s1.7,0.2,2.4,0.6c0.7,0.4,1.2,0.9,1.6,1.6c0.4,0.7,0.6,1.4,0.6,2.2
		c0,0.8-0.2,1.6-0.6,2.2c-0.4,0.7-0.9,1.2-1.6,1.6c-0.7,0.4-1.5,0.6-2.4,0.6S127.6,47.9,126.9,47.5z M130.6,46.1
		c0.4-0.2,0.7-0.5,0.9-1c0.2-0.4,0.3-0.9,0.3-1.4c0-0.5-0.1-1-0.3-1.4c-0.2-0.4-0.5-0.7-0.9-1c-0.4-0.2-0.8-0.3-1.3-0.3
		s-0.9,0.1-1.3,0.3c-0.4,0.2-0.7,0.5-0.9,1c-0.2,0.4-0.3,0.9-0.3,1.4c0,0.5,0.1,1,0.3,1.4c0.2,0.4,0.5,0.7,0.9,1
		c0.4,0.2,0.8,0.3,1.3,0.3S130.2,46.3,130.6,46.1z"/>
	<path class="st2" d="M139.9,47.1c-0.7-0.7-1-1.6-1-2.8v-4.7h1.9v4.6c0,1.5,0.6,2.3,1.9,2.3c0.6,0,1.1-0.2,1.4-0.5
		c0.3-0.4,0.5-0.9,0.5-1.7v-4.6h1.9v4.7c0,1.2-0.3,2.2-1,2.8s-1.6,1-2.8,1S140.5,47.7,139.9,47.1z"/>
	<path class="st2" d="M157.4,47.9l-1.6-2.3h-0.1h-1.7v2.3H152v-8.4h3.6c0.7,0,1.4,0.1,1.9,0.4c0.5,0.2,1,0.6,1.3,1.1s0.4,1,0.4,1.6
		s-0.1,1.2-0.4,1.6c-0.3,0.5-0.7,0.8-1.3,1l1.9,2.7H157.4z M156.9,41.5c-0.3-0.3-0.7-0.4-1.3-0.4h-1.6V44h1.6c0.6,0,1-0.1,1.3-0.4
		c0.3-0.3,0.5-0.6,0.5-1.1C157.3,42.1,157.2,41.7,156.9,41.5z"/>
	<path class="st2" d="M165.3,47.8c-0.6-0.2-1.1-0.4-1.5-0.7l0.7-1.5c0.4,0.3,0.8,0.5,1.3,0.6s1,0.2,1.5,0.2c0.6,0,1-0.1,1.2-0.2
		c0.3-0.2,0.4-0.4,0.4-0.7c0-0.2-0.1-0.4-0.2-0.5c-0.2-0.1-0.4-0.2-0.6-0.3s-0.6-0.2-1-0.3c-0.6-0.2-1.2-0.3-1.6-0.5
		c-0.4-0.2-0.8-0.4-1.1-0.7s-0.4-0.8-0.4-1.3c0-0.5,0.1-0.9,0.4-1.3c0.3-0.4,0.7-0.7,1.2-0.9c0.5-0.2,1.2-0.3,2-0.3
		c0.5,0,1.1,0.1,1.6,0.2c0.5,0.1,1,0.3,1.3,0.6l-0.6,1.5c-0.8-0.4-1.6-0.7-2.3-0.7c-0.5,0-0.9,0.1-1.2,0.3c-0.3,0.2-0.4,0.4-0.4,0.7
		c0,0.3,0.2,0.5,0.5,0.6s0.8,0.3,1.4,0.4c0.6,0.2,1.2,0.3,1.6,0.5c0.4,0.2,0.8,0.4,1,0.7s0.4,0.8,0.4,1.3c0,0.5-0.1,0.9-0.4,1.3
		c-0.3,0.4-0.7,0.7-1.2,0.9c-0.5,0.2-1.2,0.3-2,0.3C166.5,48.1,165.9,48,165.3,47.8z"/>
	<path class="st2" d="M182.2,46.4v1.6h-6.5v-8.4h6.3v1.6h-4.4v1.8h3.9v1.5h-3.9v1.9H182.2z"/>
</g>
</svg>
